<?xml version="1.0" standalone="no"?>
<!DOCTYPE svg PUBLIC "-//W3C//DTD SVG 20010904//EN"
 "http://www.w3.org/TR/2001/REC-SVG-20010904/DTD/svg10.dtd">
<svg version="1.0" xmlns="http://www.w3.org/2000/svg"
 width="300.000000pt" height="168.000000pt" viewBox="0 0 300.000000 168.000000"
 preserveAspectRatio="xMidYMid meet">
<metadata>
Created by potrace 1.16, written by Peter Selinger 2001-2019
</metadata>
<g transform="translate(0.000000,168.000000) scale(0.100000,-0.100000)"
fill="#000000" stroke="none">
<path d="M1030 1601 c-8 -5 -45 -19 -82 -31 -38 -13 -68 -26 -68 -29 0 -4 -13
-6 -30 -5 -16 1 -30 -2 -30 -6 0 -4 -10 -10 -22 -14 -13 -3 -36 -17 -53 -32
-16 -14 -47 -37 -67 -50 -39 -25 -53 -42 -19 -24 30 15 38 12 13 -6 -12 -8
-31 -16 -41 -17 -10 0 -24 -10 -31 -22 -12 -19 -12 -19 5 -5 17 14 18 14 6 -8
-7 -12 -16 -20 -22 -17 -5 4 -9 0 -9 -8 0 -8 -7 -18 -16 -21 -10 -4 -14 -14
-11 -26 3 -10 -1 -24 -9 -31 -17 -14 -18 -35 -2 -45 7 -4 8 -3 4 4 -4 7 -2 12
3 12 14 0 14 -17 1 -25 -14 -9 -13 -38 2 -53 7 -7 11 -28 10 -46 -3 -32 42
-146 58 -146 3 0 4 16 2 36 -5 39 12 79 36 89 15 5 77 -12 100 -28 7 -6 17 -5
25 1 10 8 16 6 25 -9 14 -22 37 -15 27 9 -3 8 0 19 6 23 9 5 9 18 1 48 -11 44
-6 85 9 75 5 -3 12 3 16 13 4 10 10 20 14 23 9 6 14 58 8 75 -10 28 21 73 66
95 40 19 58 22 130 18 70 -4 90 -9 125 -32 39 -26 83 -79 124 -149 13 -23 17
-26 13 -9 -3 13 0 22 6 22 7 0 5 5 -3 10 -8 5 -11 10 -6 10 5 0 3 7 -4 15 -6
8 -9 22 -6 32 10 31 -11 94 -41 121 -15 15 -38 45 -50 67 -12 22 -27 39 -33
37 -7 -1 -18 2 -26 9 -8 6 -21 9 -29 5 -8 -3 -15 -1 -15 4 0 6 -7 10 -16 10
-9 0 -22 6 -28 14 -15 19 -48 27 -66 17z"/>
<path d="M1071 1200 c-18 -4 -40 -14 -48 -22 -12 -13 -7 -14 39 -11 29 3 64 0
78 -6 18 -7 20 -10 8 -10 -10 -1 -18 -5 -18 -10 0 -4 -12 -8 -27 -9 -63 -1
-82 -5 -87 -18 -3 -7 -1 -16 5 -20 14 -8 79 5 79 16 0 6 7 10 15 10 9 0 12 -6
9 -15 -4 -10 0 -15 16 -15 11 0 18 -4 15 -10 -3 -5 2 -10 13 -10 25 0 41 35
39 90 l-2 45 -50 2 c-27 1 -65 -2 -84 -7z"/>
<path d="M1189 620 c-1 -14 -2 -32 -3 -40 -1 -8 -8 -15 -16 -15 -8 0 -15 -4
-15 -10 -1 -5 -6 -20 -13 -32 -9 -17 -9 -22 1 -26 9 -3 7 -9 -6 -24 -9 -11
-14 -22 -11 -25 3 -3 -8 -14 -25 -24 -30 -18 -42 -45 -45 -96 -1 -25 1 -26 19
-14 11 7 26 25 33 39 13 27 71 77 89 77 13 0 116 107 132 138 17 32 31 27 25
-10 -8 -46 12 -15 21 33 l7 36 -53 -8 c-31 -5 -57 -5 -63 1 -5 5 -16 4 -27 -3
-15 -9 -21 -8 -33 8 -15 20 -15 19 -17 -5z"/>
<path d="M1678 565 c-2 -2 -41 -6 -88 -9 -146 -12 -206 -38 -217 -92 -6 -28
-4 -116 2 -122 4 -5 10 80 6 101 -1 5 3 6 7 3 5 -3 8 -17 7 -31 -2 -17 6 -32
26 -49 16 -14 29 -28 29 -31 0 -7 26 -35 33 -35 3 0 8 11 11 25 4 14 11 25 16
25 5 0 7 6 4 14 -3 8 5 24 18 35 26 25 57 22 91 -9 11 -11 29 -20 39 -20 10 0
18 -5 18 -12 0 -9 3 -9 12 0 8 8 12 37 9 83 -3 68 -2 71 20 67 15 -2 30 -19
48 -53 14 -27 28 -52 31 -55 7 -7 12 -48 11 -98 0 -25 4 -40 9 -37 6 4 10 -2
10 -12 0 -33 21 -94 30 -88 5 3 8 -4 7 -15 -1 -12 -7 -18 -14 -16 -7 3 -15 0
-19 -6 -4 -6 -3 -8 3 -5 14 9 24 -17 17 -40 -4 -14 -3 -15 4 -5 7 11 10 11 15
-2 4 -9 3 -16 -1 -16 -4 0 -8 -9 -8 -20 0 -11 4 -20 9 -20 4 0 5 -4 2 -10 -4
-6 17 -10 54 -10 37 0 61 4 61 11 0 21 -51 216 -72 274 -38 106 -119 249 -150
266 -18 10 -84 20 -90 14z"/>
<path d="M2347 260 c-12 -30 -27 -138 -21 -154 4 -10 0 -18 -10 -22 -9 -3 -13
-11 -9 -18 4 -6 8 -22 8 -36 0 -22 5 -25 39 -28 47 -4 70 4 59 20 -12 20 -12
38 -1 38 7 0 6 5 -1 14 -6 7 -9 21 -5 30 3 9 4 16 0 16 -3 0 -10 -15 -15 -32
-5 -19 -9 -25 -9 -13 -1 11 3 29 7 40 5 12 4 30 -4 45 -8 14 -18 45 -23 70 -5
27 -11 39 -15 30z"/>
</g>
</svg>
